<?xml version="1.0" standalone="no"?>
<!DOCTYPE svg PUBLIC "-//W3C//DTD SVG 20010904//EN"
 "http://www.w3.org/TR/2001/REC-SVG-20010904/DTD/svg10.dtd">
<svg version="1.0" xmlns="http://www.w3.org/2000/svg"
 width="300.000000pt" height="300.000000pt" viewBox="0 0 300.000000 300.000000"
 preserveAspectRatio="xMidYMid meet">

<g transform="translate(0.000000,300.000000) scale(0.100000,-0.100000)"
fill="#000000" stroke="none">
<path d="M1531 2625 c-267 -61 -463 -289 -479 -557 -5 -89 8 -185 34 -246 13
-32 14 -33 38 -17 42 28 123 30 217 6 l84 -22 27 32 c15 18 43 62 62 99 l35
67 -54 22 c-73 31 -129 92 -144 159 -27 128 47 265 180 333 80 40 225 34 249
-11 15 -29 -4 -35 -106 -35 -83 0 -94 -2 -139 -30 -27 -17 -63 -50 -80 -74
-28 -39 -30 -49 -30 -126 0 -75 2 -86 25 -110 27 -28 80 -55 111 -55 12 0 27
17 45 53 50 99 133 214 205 282 64 60 101 82 199 122 24 10 23 10 -23 37 -127
75 -314 104 -456 71z"/>
<path d="M2004 2441 c-36 -22 -72 -67 -104 -130 -31 -63 -92 -222 -86 -228 13
-14 164 102 219 170 43 53 77 119 77 150 0 28 -28 57 -56 57 -10 0 -33 -9 -50
-19z"/>
<path d="M2156 2304 c-51 -113 -186 -233 -325 -290 -50 -21 -56 -26 -77 -79
-13 -31 -46 -91 -74 -133 -27 -41 -48 -77 -46 -80 11 -10 148 -19 194 -11 68
10 102 29 167 95 46 47 58 54 70 44 23 -19 18 -38 -22 -94 -59 -80 -134 -156
-178 -179 -67 -35 -176 -21 -289 35 l-39 20 -71 -36 c-42 -22 -93 -39 -125
-43 -50 -6 -52 -7 -35 -21 10 -8 50 -29 88 -48 240 -117 529 -69 714 118 188
190 232 456 117 697 -19 39 -36 71 -37 71 -2 0 -16 -30 -32 -66z"/>
<path d="M1163 1749 c-31 -31 -3 -93 47 -104 34 -7 105 21 133 53 18 20 18 21
-14 38 -43 22 -150 30 -166 13z"/>
<path d="M527 1376 c-99 -36 -170 -134 -170 -235 0 -88 30 -133 116 -171 l47
-21 -36 -69 c-53 -101 -57 -104 -134 -84 -38 10 -86 14 -119 12 -46 -4 -59
-10 -83 -37 -114 -127 119 -239 297 -143 l56 31 57 -26 c60 -26 152 -40 196
-29 36 9 98 66 167 156 73 94 118 147 119 138 0 -3 -18 -44 -40 -89 -44 -92
-51 -146 -22 -172 37 -34 85 -17 191 66 35 28 75 67 90 87 39 53 101 125 101
116 0 -5 -27 -61 -61 -126 -33 -65 -59 -126 -57 -137 4 -24 39 -28 77 -9 16 9
73 67 126 131 99 118 147 164 153 146 2 -5 -16 -49 -39 -97 -68 -144 -63 -190
22 -188 39 1 77 26 185 118 l41 36 -4 -45 c-8 -63 3 -92 38 -110 39 -21 80 -8
137 40 44 39 52 42 52 21 0 -7 9 -25 21 -40 41 -52 117 -29 214 65 l64 61 -10
-35 c-12 -43 1 -80 36 -103 34 -22 81 -12 146 31 28 19 53 35 55 35 2 0 4 -9
4 -20 0 -29 35 -60 68 -60 15 0 48 13 73 29 59 38 179 149 179 166 0 30 -23
24 -71 -19 -90 -81 -93 -38 -9 120 33 62 60 124 60 137 0 32 -45 87 -71 87
-12 0 -26 -15 -39 -39 -19 -39 -21 -40 -51 -29 -76 26 -190 -16 -250 -94 -18
-24 -69 -80 -113 -125 -76 -79 -116 -102 -116 -68 0 8 33 82 73 163 41 81 88
181 106 223 33 76 33 76 16 113 -18 38 -48 61 -69 53 -6 -3 -45 -66 -86 -141
-71 -129 -76 -136 -100 -129 -14 4 -44 7 -68 6 -55 -1 -132 -52 -198 -131 -75
-90 -147 -162 -177 -178 -48 -26 -44 7 18 135 31 65 55 126 53 137 -2 10 -15
25 -29 33 -25 14 -30 13 -83 -19 -31 -19 -85 -61 -121 -93 -62 -56 -82 -65
-50 -23 23 30 19 90 -8 122 -37 43 -62 28 -141 -80 -58 -80 -191 -216 -210
-216 -14 0 -3 45 34 139 44 108 44 117 -2 167 -32 36 -65 19 -126 -67 -86
-120 -184 -228 -232 -257 -40 -24 -55 -27 -137 -27 -51 1 -95 4 -99 8 -4 3 10
31 30 62 21 30 48 80 62 110 23 50 30 57 97 89 136 65 249 194 263 299 6 40 3
49 -19 71 -21 21 -36 26 -74 26 -123 0 -277 -135 -369 -322 -30 -61 -36 -64
-81 -47 -105 39 -123 170 -35 261 50 52 107 72 181 65 48 -5 60 -4 65 9 14 36
-103 56 -177 30z m443 -55 c22 -43 1 -97 -71 -175 -52 -57 -155 -133 -165
-123 -10 9 40 141 80 212 49 90 130 134 156 86z m1168 -362 c3 -26 -53 -126
-96 -171 -29 -31 -59 -36 -69 -11 -14 37 116 222 149 211 7 -3 14 -15 16 -29z
m538 16 c17 -43 -121 -232 -163 -223 -26 5 -19 42 19 105 63 104 129 158 144
118z m-2363 -221 c26 -9 49 -20 52 -25 10 -16 -76 -69 -112 -69 -58 0 -94 58
-57 94 20 20 58 20 117 0z"/>
<path d="M1214 1296 c-29 -29 -34 -41 -34 -80 0 -51 16 -66 70 -66 23 0 42 10
66 34 29 29 34 41 34 80 0 51 -16 66 -70 66 -23 0 -42 -10 -66 -34z"/>
</g>
</svg>
